<svg xmlns="http://www.w3.org/2000/svg" xml:space="preserve" style="enable-background:new 0 0 128 128"
  viewBox="0 0 128 128">
  <path
    d="M30.8 14.6c5.4-12.9 23-18.7 34.9-11.2 6.9 4.3 10.6 12.4 11.2 20.3-2 3.3-3.5 6.9-4.4 10.6-10-1.7-20.5 2.2-26.9 10.1-3.1-2.6-6.7-4.5-10.5-5.9-2.4-.6-2.9-3.2-3.9-5-2.6-6-2.9-12.9-.4-18.9zm60 2c6.3-3.3 14.4-3.4 20.7 0 7.1 3.9 12.3 11.2 13.3 19.4.9 6.9-2.1 13.9-7.3 18.4-5.7 5.4-13.6 7.9-21.4 7.4-.6-11.8-8.7-22.5-19.7-26.4 1.7-8 7.2-15 14.4-18.8zm-81.1 30c9.4-8.2 24.5-7 33.7 1.1-5.7 9.1-5.6 21.1-.2 30.3-3.6 2.1-6.2 5.7-9.3 8.5-9.9 3.7-22.7.5-28.1-9-5.7-9.7-4.7-23.4 3.9-30.9zm86.1 19.3c4.5.4 8.8-.9 13.2-1.2 9.1 2.9 16.7 11.5 16.8 21.3.1 11.4-8.6 22.5-19.8 24.5-13.1 2.2-25.5-8.1-28.5-20.5 9.9-3.9 17.2-13.5 18.3-24.1zm-62.7 45.8c-3.5-11.5 2.5-24.2 12.2-30.4 6.7 8.1 17.9 12.4 28.3 10.1 1.3 4.5 3.3 8.8 6.3 12.5-.4 7.7-3.7 15.5-10.1 20.1-12.2 8.7-32.2 2.3-36.7-12.3z" />
  <ellipse cx="67.6" cy="62.9" rx="24.4" ry="24.9" />
</svg>